<svg width="9" height="18" viewBox="0 0 9 18" fill="none" xmlns="http://www.w3.org/2000/svg">
<path d="M4.58243 17.2374C3.36341 17.2374 2.32682 16.8103 1.47266 15.9561C0.618489 15.102 0.191406 14.0654 0.191406 12.8464V3.83996C0.191406 2.96296 0.503677 2.2122 1.12822 1.58767C1.75275 0.963143 2.50351 0.650879 3.38051 0.650879C4.25751 0.650879 5.00827 0.963143 5.6328 1.58767C6.25733 2.2122 6.56959 2.96296 6.56959 3.83996V11.965C6.56959 12.5214 6.37748 12.9917 5.99326 13.3759C5.60902 13.7601 5.13867 13.9521 4.5822 13.9521C4.02573 13.9521 3.55545 13.7601 3.17136 13.3759C2.7873 12.9917 2.59526 12.5214 2.59526 11.965V4.33675C2.59526 4.19324 2.64214 4.07456 2.73591 3.98071C2.82967 3.88688 2.94826 3.83996 3.09168 3.83996C3.23508 3.83996 3.35379 3.88688 3.4478 3.98071C3.54182 4.07456 3.58882 4.19324 3.58882 4.33675V11.965C3.58882 12.2465 3.68404 12.4825 3.87449 12.6729C4.06493 12.8634 4.30091 12.9586 4.58243 12.9586C4.86394 12.9586 5.09992 12.8634 5.29036 12.6729C5.48081 12.4825 5.57603 12.2465 5.57603 11.965V3.83996C5.57603 3.22521 5.36373 2.70561 4.93913 2.28115C4.51454 1.85668 3.99477 1.64444 3.37982 1.64444C2.76489 1.64444 2.24535 1.85668 1.8212 2.28115C1.39706 2.70561 1.18499 3.22521 1.18499 3.83996V12.8464C1.18499 13.7844 1.51672 14.5852 2.18018 15.2486C2.84363 15.9121 3.64438 16.2438 4.58243 16.2438C5.52047 16.2438 6.32122 15.9121 6.98468 15.2486C7.64813 14.5852 7.97986 13.7844 7.97986 12.8464V4.33675C7.97986 4.19324 8.02675 4.07456 8.12051 3.98071C8.21429 3.88688 8.33288 3.83996 8.47628 3.83996C8.61968 3.83996 8.73839 3.88688 8.83241 3.98071C8.92643 4.07456 8.97345 4.19324 8.97345 4.33675V12.8464C8.97345 14.0654 8.54636 15.102 7.6922 15.9561C6.83803 16.8103 5.80144 17.2374 4.58243 17.2374Z" fill="#2F2B3D" fill-opacity="0.68"/>
</svg>
