<svg width="22" height="17" viewBox="0 0 22 17" fill="none" xmlns="http://www.w3.org/2000/svg">
<path fill-rule="evenodd" clip-rule="evenodd" d="M4.70801 16.7916C2.49887 16.7916 0.708008 15.0007 0.708008 12.7916V4.875C0.708008 2.66586 2.49887 0.875 4.70801 0.875H17.2913C19.5004 0.875 21.2913 2.66586 21.2913 4.875V12.7916C21.2913 15.0007 19.5004 16.7916 17.2913 16.7916H4.70801ZM7.03094 8.1875H2.33298V5.49997C2.33298 3.84312 3.67613 2.49997 5.33298 2.49997H7.03094V8.1875ZM13.3434 8.1875H8.65588V2.49997H13.3434V8.1875ZM19.6663 8.1875H14.9684V2.49997H16.6663C18.3232 2.49997 19.6663 3.84312 19.6663 5.49997V8.1875ZM7.03094 9.81245V15.5H5.33298C3.67613 15.5 2.33298 14.1568 2.33298 12.5V9.81245H7.03094ZM13.3434 15.5H8.65588V9.81245H13.3434V15.5ZM19.6663 12.5C19.6663 14.1568 18.3232 15.5 16.6663 15.5H14.9684V9.81245H19.6663V12.5Z" fill="#2F2B3D" fill-opacity="0.68"/>
</svg>
