<svg width="21" height="20" viewBox="0 0 21 20" fill="none" xmlns="http://www.w3.org/2000/svg">
<path d="M10.6699 0C8.69211 0 6.75872 0.58649 5.11422 1.6853C3.46973 2.78412 2.18801 4.3459 1.43113 6.17317C0.674255 8.00043 0.476221 10.0111 0.862074 11.9509C1.24793 13.8907 2.20033 15.6725 3.59886 17.0711C4.99738 18.4696 6.77921 19.422 8.71902 19.8079C10.6588 20.1937 12.6695 19.9957 14.4968 19.2388C16.324 18.4819 17.8858 17.2002 18.9846 15.5557C20.0834 13.9112 20.6699 11.9778 20.6699 10C20.6667 7.34881 19.6122 4.80712 17.7375 2.93244C15.8628 1.05776 13.3211 0.00317572 10.6699 0ZM15.5539 8.384L10.0539 13.884C9.81937 14.1182 9.50142 14.2498 9.16993 14.2498C8.83843 14.2498 8.52049 14.1182 8.28593 13.884L5.78593 11.384C5.55148 11.1495 5.41976 10.8316 5.41976 10.5C5.41976 10.1684 5.55148 9.85045 5.78593 9.616C6.02038 9.38155 6.33836 9.24984 6.66993 9.24984C7.00149 9.24984 7.31947 9.38155 7.55393 9.616L9.16993 11.232L13.7859 6.616C13.902 6.49991 14.0398 6.40782 14.1915 6.345C14.3432 6.28217 14.5058 6.24984 14.6699 6.24984C14.8341 6.24984 14.9967 6.28217 15.1483 6.345C15.3 6.40782 15.4378 6.49991 15.5539 6.616C15.67 6.73209 15.7621 6.86991 15.8249 7.02158C15.8878 7.17326 15.9201 7.33583 15.9201 7.5C15.9201 7.66417 15.8878 7.82674 15.8249 7.97842C15.7621 8.13009 15.67 8.26791 15.5539 8.384Z" fill="#038164"/>
</svg>
