<svg width="18" height="18" viewBox="0 0 18 18" fill="none" xmlns="http://www.w3.org/2000/svg">
<path d="M2.49932 17.3959C1.97293 17.3959 1.52537 17.2115 1.15664 16.8427C0.78789 16.474 0.603516 16.0264 0.603516 15.5001V11.1667C0.603516 10.6403 0.78789 10.1928 1.15664 9.82404C1.52537 9.45529 1.97293 9.27092 2.49932 9.27092C3.02571 9.27092 3.47327 9.45529 3.84201 9.82404C4.21075 10.1928 4.39513 10.6403 4.39513 11.1667V15.5001C4.39513 16.0264 4.21075 16.474 3.84201 16.8427C3.47327 17.2115 3.02571 17.3959 2.49932 17.3959ZM8.99932 17.3959C8.47293 17.3959 8.02537 17.2115 7.65664 16.8427C7.28789 16.474 7.10352 16.0264 7.10352 15.5001V2.50005C7.10352 1.97366 7.28789 1.5261 7.65664 1.15737C8.02537 0.788623 8.47293 0.604248 8.99932 0.604248C9.52571 0.604248 9.97328 0.788623 10.342 1.15737C10.7108 1.5261 10.8951 1.97366 10.8951 2.50005V15.5001C10.8951 16.0264 10.7108 16.474 10.342 16.8427C9.97328 17.2115 9.52571 17.3959 8.99932 17.3959ZM15.4993 17.3959C14.9729 17.3959 14.5254 17.2115 14.1566 16.8427C13.7879 16.474 13.6035 16.0264 13.6035 15.5001V7.91672C13.6035 7.39033 13.7879 6.94277 14.1566 6.57404C14.5254 6.20529 14.9729 6.02092 15.4993 6.02092C16.0257 6.02092 16.4733 6.20529 16.842 6.57404C17.2108 6.94277 17.3951 7.39033 17.3951 7.91672V15.5001C17.3951 16.0264 17.2108 16.474 16.842 16.8427C16.4733 17.2115 16.0257 17.3959 15.4993 17.3959Z" fill="#2F2B3D" fill-opacity="0.68"/>
</svg>
