<svg width="20" height="19" viewBox="0 0 20 19" fill="none" xmlns="http://www.w3.org/2000/svg">
<path d="M5.11543 15.1153C4.86478 15.1153 4.65468 15.0305 4.48513 14.861C4.31558 14.6914 4.23081 14.4813 4.23081 14.2307V12.7307H16.6058L16.9231 13.0481V3.99998H18.4231C18.6737 3.99998 18.8838 4.08475 19.0534 4.2543C19.2229 4.42385 19.3077 4.63394 19.3077 4.88457V18.6537L15.7693 15.1153H5.11543ZM0.692383 14.2691V1.38463C0.692383 1.13398 0.777158 0.923876 0.946708 0.754326C1.11626 0.584776 1.32636 0.5 1.57701 0.5H14.0385C14.2891 0.5 14.4992 0.584776 14.6688 0.754326C14.8383 0.923876 14.9231 1.13398 14.9231 1.38463V9.84613C14.9231 10.0968 14.8383 10.3069 14.6688 10.4764C14.4992 10.646 14.2891 10.7307 14.0385 10.7307H4.23081L0.692383 14.2691ZM13.4231 9.23075V1.99998H2.19236V10.6154L3.59238 9.23075H13.4231Z" fill="#2F2B3D" fill-opacity="0.68"/>
</svg>
