<svg width="38" height="38" viewBox="0 0 38 38" fill="none" xmlns="http://www.w3.org/2000/svg">
<rect opacity="0.12" width="38" height="38" rx="6" fill="#C13584"/>
<g clip-path="url(#clip0_634_8573)">
<path d="M23.806 13.114C23.5924 13.114 23.3836 13.1773 23.206 13.296C23.0284 13.4147 22.89 13.5834 22.8082 13.7807C22.7265 13.978 22.7051 14.1952 22.7468 14.4047C22.7884 14.6142 22.8913 14.8066 23.0423 14.9577C23.1934 15.1087 23.3858 15.2116 23.5953 15.2532C23.8048 15.2949 24.022 15.2735 24.2193 15.1918C24.4166 15.11 24.5853 14.9716 24.704 14.794C24.8227 14.6164 24.886 14.4076 24.886 14.194C24.886 13.9076 24.7722 13.6329 24.5697 13.4303C24.3671 13.2278 24.0924 13.114 23.806 13.114ZM27.946 15.292C27.9285 14.5453 27.7886 13.8065 27.532 13.105C27.3032 12.5048 26.947 11.9614 26.488 11.512C26.0423 11.0507 25.4976 10.6968 24.895 10.477C24.1954 10.2125 23.4558 10.0695 22.708 10.054C21.754 10 21.448 10 19 10C16.552 10 16.246 10 15.292 10.054C14.5442 10.0695 13.8046 10.2125 13.105 10.477C12.5035 10.699 11.9592 11.0526 11.512 11.512C11.0507 11.9577 10.6968 12.5024 10.477 13.105C10.2125 13.8046 10.0695 14.5442 10.054 15.292C10 16.246 10 16.552 10 19C10 21.448 10 21.754 10.054 22.708C10.0695 23.4558 10.2125 24.1954 10.477 24.895C10.6968 25.4976 11.0507 26.0423 11.512 26.488C11.9592 26.9474 12.5035 27.301 13.105 27.523C13.8046 27.7875 14.5442 27.9305 15.292 27.946C16.246 28 16.552 28 19 28C21.448 28 21.754 28 22.708 27.946C23.4558 27.9305 24.1954 27.7875 24.895 27.523C25.4976 27.3032 26.0423 26.9493 26.488 26.488C26.949 26.0403 27.3055 25.4964 27.532 24.895C27.7886 24.1935 27.9285 23.4547 27.946 22.708C27.946 21.754 28 21.448 28 19C28 16.552 28 16.246 27.946 15.292ZM26.326 22.6C26.3194 23.1713 26.216 23.7373 26.02 24.274C25.8763 24.6657 25.6455 25.0196 25.345 25.309C25.0531 25.6065 24.6999 25.8368 24.31 25.984C23.7733 26.18 23.2073 26.2834 22.636 26.29C21.736 26.335 21.403 26.344 19.036 26.344C16.669 26.344 16.336 26.344 15.436 26.29C14.8428 26.3011 14.2521 26.2098 13.69 26.02C13.3172 25.8653 12.9802 25.6355 12.7 25.345C12.4013 25.0559 12.1734 24.7017 12.034 24.31C11.8143 23.7656 11.6924 23.1867 11.674 22.6C11.674 21.7 11.62 21.367 11.62 19C11.62 16.633 11.62 16.3 11.674 15.4C11.678 14.8159 11.7847 14.2372 11.989 13.69C12.1474 13.3101 12.3906 12.9715 12.7 12.7C12.9734 12.3906 13.3114 12.1448 13.69 11.98C14.2386 11.782 14.8168 11.6786 15.4 11.674C16.3 11.674 16.633 11.62 19 11.62C21.367 11.62 21.7 11.62 22.6 11.674C23.1713 11.6806 23.7373 11.784 24.274 11.98C24.683 12.1318 25.0501 12.3786 25.345 12.7C25.6399 12.9765 25.8704 13.3145 26.02 13.69C26.22 14.238 26.3236 14.8166 26.326 15.4C26.371 16.3 26.38 16.633 26.38 19C26.38 21.367 26.371 21.7 26.326 22.6ZM19 14.383C18.0872 14.3848 17.1955 14.6571 16.4374 15.1655C15.6793 15.6739 15.0889 16.3956 14.7409 17.2394C14.3928 18.0832 14.3027 19.0112 14.4818 19.9062C14.661 20.8013 15.1014 21.6231 15.7475 22.2679C16.3935 22.9127 17.2162 23.3515 18.1116 23.5289C19.0069 23.7064 19.9348 23.6144 20.7779 23.2647C21.621 22.915 22.3416 22.3232 22.8485 21.5641C23.3554 20.8051 23.626 19.9128 23.626 19C23.6272 18.3926 23.5083 17.7909 23.2761 17.2297C23.0439 16.6684 22.7031 16.1585 22.2732 15.7294C21.8433 15.3004 21.3328 14.9605 20.771 14.7294C20.2093 14.4984 19.6074 14.3806 19 14.383ZM19 21.997C18.4072 21.997 17.8278 21.8212 17.335 21.4919C16.8421 21.1626 16.458 20.6945 16.2311 20.1469C16.0043 19.5993 15.9449 18.9967 16.0606 18.4153C16.1762 17.834 16.4617 17.2999 16.8808 16.8808C17.2999 16.4617 17.834 16.1762 18.4153 16.0606C18.9967 15.9449 19.5993 16.0043 20.1469 16.2311C20.6945 16.458 21.1626 16.8421 21.4919 17.335C21.8212 17.8278 21.997 18.4072 21.997 19C21.997 19.3936 21.9195 19.7833 21.7689 20.1469C21.6183 20.5105 21.3975 20.8409 21.1192 21.1192C20.8409 21.3975 20.5105 21.6183 20.1469 21.7689C19.7833 21.9195 19.3936 21.997 19 21.997Z" fill="#C13584"/>
</g>
<defs>
<clipPath id="clip0_634_8573">
<rect width="18" height="18" fill="white" transform="translate(10 10)"/>
</clipPath>
</defs>
</svg>
