<svg width="38" height="38" viewBox="0 0 38 38" fill="none" xmlns="http://www.w3.org/2000/svg">
<rect opacity="0.12" width="38" height="38" rx="6" fill="#0077B5"/>
<g clip-path="url(#clip0_634_8578)">
<path d="M10 12.0038C10 11.423 10.2027 10.9438 10.6081 10.5663C11.0135 10.1888 11.5405 10 12.1892 10C12.8263 10 13.3417 10.1858 13.7355 10.5576C14.1409 10.9409 14.3436 11.4404 14.3436 12.0561C14.3436 12.6136 14.1467 13.0783 13.7529 13.45C13.3475 13.8333 12.8147 14.025 12.1544 14.025H12.1371C11.5 14.025 10.9846 13.8333 10.5907 13.45C10.1969 13.0667 10 12.5846 10 12.0038ZM10.2259 27.25V15.6106H14.083V27.25H10.2259ZM16.2201 27.25H20.0772V20.7507C20.0772 20.3442 20.1236 20.0305 20.2162 19.8098C20.3784 19.4149 20.6245 19.0809 20.9546 18.8079C21.2847 18.535 21.6988 18.3985 22.1969 18.3985C23.4942 18.3985 24.1429 19.2755 24.1429 21.0295V27.25H28V20.5765C28 18.8573 27.5946 17.5534 26.7838 16.6648C25.973 15.7761 24.9016 15.3318 23.5695 15.3318C22.0753 15.3318 20.9112 15.9765 20.0772 17.2659V17.3007H20.0598L20.0772 17.2659V15.6106H16.2201C16.2432 15.9823 16.2548 17.1381 16.2548 19.078C16.2548 21.0179 16.2432 23.7419 16.2201 27.25Z" fill="#0077B5"/>
</g>
<defs>
<clipPath id="clip0_634_8578">
<rect width="18" height="18" fill="white" transform="translate(10 10)"/>
</clipPath>
</defs>
</svg>
