<svg width="20" height="10" viewBox="0 0 20 10" fill="none" xmlns="http://www.w3.org/2000/svg">
<path d="M8.80765 9.5384H5.03845C3.78282 9.5384 2.7125 9.09596 1.8275 8.21107C0.9425 7.32619 0.5 6.25601 0.5 5.00052C0.5 3.74504 0.9425 2.67467 1.8275 1.78942C2.7125 0.904173 3.78282 0.461548 5.03845 0.461548H8.80765V1.9615H5.03845C4.1987 1.9615 3.48235 2.25797 2.8894 2.85092C2.29645 3.44387 1.99998 4.16022 1.99998 4.99997C1.99998 5.83972 2.29645 6.55607 2.8894 7.14902C3.48235 7.74197 4.1987 8.03845 5.03845 8.03845H8.80765V9.5384ZM6.25 5.74995V4.25H13.75V5.74995H6.25ZM11.1923 9.5384V8.03845H14.9615C15.8013 8.03845 16.5176 7.74197 17.1106 7.14902C17.7035 6.55607 18 5.83972 18 4.99997C18 4.16022 17.7035 3.44387 17.1106 2.85092C16.5176 2.25797 15.8013 1.9615 14.9615 1.9615H11.1923V0.461548H14.9615C16.2171 0.461548 17.2875 0.90399 18.1725 1.78887C19.0575 2.67376 19.5 3.74394 19.5 4.99942C19.5 6.25491 19.0575 7.32527 18.1725 8.21052C17.2875 9.09577 16.2171 9.5384 14.9615 9.5384H11.1923Z" fill="#3143DE"/>
</svg>
