<svg width="20" height="20" viewBox="0 0 20 20" fill="none" xmlns="http://www.w3.org/2000/svg">
<g clip-path="url(#clip0_5209_45296)">
<path d="M5.49996 5.5C5.49996 6.09095 5.61636 6.67611 5.8425 7.22208C6.06865 7.76804 6.40012 8.26412 6.81798 8.68198C7.23585 9.09984 7.73192 9.43131 8.27789 9.65746C8.82385 9.8836 9.40901 10 9.99996 10C10.5909 10 11.1761 9.8836 11.722 9.65746C12.268 9.43131 12.7641 9.09984 13.1819 8.68198C13.5998 8.26412 13.9313 7.76804 14.1574 7.22208C14.3836 6.67611 14.5 6.09095 14.5 5.5C14.5 4.90905 14.3836 4.32389 14.1574 3.77792C13.9313 3.23196 13.5998 2.73588 13.1819 2.31802C12.7641 1.90016 12.268 1.56869 11.722 1.34254C11.1761 1.1164 10.5909 1 9.99996 1C9.40901 1 8.82385 1.1164 8.27789 1.34254C7.73192 1.56869 7.23585 1.90016 6.81798 2.31802C6.40012 2.73588 6.06865 3.23196 5.8425 3.77792C5.61636 4.32389 5.49996 4.90905 5.49996 5.5ZM18.488 19C17.8687 17.2434 16.7197 15.7222 15.1994 14.6462C13.6792 13.5702 11.8625 12.9923 9.99996 12.9923C8.13742 12.9923 6.32075 13.5702 4.80048 14.6462C3.2802 15.7222 2.13122 17.2434 1.51196 19H18.488Z" stroke="#2F2B3D" stroke-opacity="0.68" stroke-width="2" stroke-linecap="round" stroke-linejoin="round"/>
</g>
<defs>
<clipPath id="clip0_5209_45296">
<rect width="20" height="20" fill="white"/>
</clipPath>
</defs>
</svg>
