<svg width="21" height="12" viewBox="0 0 21 12" fill="none" xmlns="http://www.w3.org/2000/svg">
<path d="M15.1313 11.5643C14.9813 11.7143 14.7955 11.7876 14.574 11.7841C14.3525 11.7806 14.1611 11.6984 14.0001 11.5372C13.832 11.3692 13.748 11.1762 13.748 10.9581C13.748 10.74 13.832 10.547 14.0001 10.3789L18.3959 5.98311L13.973 1.56015C13.823 1.41017 13.7525 1.22441 13.7615 1.00289C13.7705 0.781363 13.8501 0.595608 14.0001 0.44562C14.157 0.288663 14.3473 0.210185 14.5709 0.210185C14.7945 0.210185 14.9847 0.288663 15.1417 0.44562L20.0104 5.31436C20.2062 5.51019 20.3042 5.73866 20.3042 5.99976C20.3042 6.26086 20.2062 6.48933 20.0104 6.68516L15.1313 11.5643ZM5.33339 11.5539L0.464644 6.68516C0.268814 6.48933 0.170898 6.26086 0.170898 5.99976C0.170898 5.73866 0.268814 5.51019 0.464644 5.31436L5.34379 0.435193C5.49379 0.285188 5.68233 0.209147 5.9094 0.207071C6.13648 0.204994 6.33058 0.284511 6.49169 0.44562C6.65973 0.613663 6.74375 0.806713 6.74375 1.02477C6.74375 1.24281 6.65973 1.43586 6.49169 1.60392L2.07916 6.01642L6.50209 10.4394C6.65209 10.5894 6.72258 10.7751 6.71356 10.9966C6.70453 11.2182 6.62501 11.4039 6.47501 11.5539C6.31807 11.7109 6.1278 11.7893 5.9042 11.7893C5.6806 11.7893 5.49033 11.7109 5.33339 11.5539Z" fill="#2F2B3D" fill-opacity="0.68"/>
</svg>
