<svg width="14" height="16" viewBox="0 0 14 16" fill="none" xmlns="http://www.w3.org/2000/svg">
<path d="M2.69872 15.7916C2.23569 15.7916 1.84375 15.6312 1.52292 15.3104C1.20208 14.9896 1.04167 14.5976 1.04167 14.1346V2.5H0.8125C0.617418 2.5 0.454068 2.43419 0.32245 2.30257C0.190817 2.17096 0.125 2.00761 0.125 1.81252C0.125 1.61744 0.190817 1.45409 0.32245 1.32247C0.454068 1.19084 0.617418 1.12502 0.8125 1.12502H4.24998C4.24998 0.894695 4.33048 0.701967 4.49147 0.546836C4.65249 0.391705 4.84816 0.31414 5.07851 0.31414H8.92145C9.15179 0.31414 9.34747 0.391705 9.50848 0.546836C9.66948 0.701967 9.74998 0.894695 9.74998 1.12502H13.1875C13.3825 1.12502 13.5459 1.19084 13.6775 1.32247C13.8091 1.45409 13.875 1.61744 13.875 1.81252C13.875 2.00761 13.8091 2.17096 13.6775 2.30257C13.5459 2.43419 13.3825 2.5 13.1875 2.5H12.9583V14.1346C12.9583 14.5976 12.7979 14.9896 12.477 15.3104C12.1562 15.6312 11.7643 15.7916 11.3012 15.7916H2.69872ZM2.41664 2.5V14.1346C2.41664 14.2169 2.44309 14.2844 2.49598 14.3373C2.54887 14.3902 2.61645 14.4167 2.69872 14.4167H11.3012C11.3835 14.4167 11.4511 14.3902 11.504 14.3373C11.5569 14.2844 11.5833 14.2169 11.5833 14.1346V2.5H2.41664ZM4.6202 11.8959C4.6202 12.0909 4.686 12.2543 4.81762 12.3859C4.94924 12.5175 5.11259 12.5833 5.30767 12.5833C5.50275 12.5833 5.6661 12.5175 5.79772 12.3859C5.92936 12.2543 5.99517 12.0909 5.99517 11.8959V5.02081C5.99517 4.82573 5.92936 4.66238 5.79772 4.53076C5.6661 4.39914 5.50275 4.33333 5.30767 4.33333C5.11259 4.33333 4.94924 4.39914 4.81762 4.53076C4.686 4.66238 4.6202 4.82573 4.6202 5.02081V11.8959ZM8.00478 11.8959C8.00478 12.0909 8.0706 12.2543 8.20223 12.3859C8.33385 12.5175 8.4972 12.5833 8.69228 12.5833C8.88736 12.5833 9.05071 12.5175 9.18233 12.3859C9.31395 12.2543 9.37976 12.0909 9.37976 11.8959V5.02081C9.37976 4.82573 9.31395 4.66238 9.18233 4.53076C9.05071 4.39914 8.88736 4.33333 8.69228 4.33333C8.4972 4.33333 8.33385 4.39914 8.20223 4.53076C8.0706 4.66238 8.00478 4.82573 8.00478 5.02081V11.8959ZM2.41664 2.5V14.1346C2.41664 14.2169 2.44309 14.2844 2.49598 14.3373C2.54887 14.3902 2.61645 14.4167 2.69872 14.4167H2.41664V2.5Z" fill="#2F2B3D" fill-opacity="0.68"/>
</svg>
