<svg width="14" height="15" viewBox="0 0 14 15" fill="none" xmlns="http://www.w3.org/2000/svg">
<path d="M6.99998 10.969C6.8895 10.969 6.78668 10.9514 6.6915 10.9161C6.5963 10.8809 6.50581 10.8203 6.42002 10.7345L3.56956 7.8841C3.44265 7.75717 3.37772 7.59764 3.37479 7.40549C3.37184 7.21335 3.43676 7.05089 3.56956 6.91809C3.70235 6.7853 3.8657 6.71655 4.05961 6.71184C4.25351 6.70714 4.41687 6.77118 4.54968 6.90398L6.3125 8.66682V1.65427C6.3125 1.45919 6.37831 1.29584 6.50993 1.16422C6.64154 1.03261 6.80489 0.966797 6.99998 0.966797C7.19506 0.966797 7.35841 1.03261 7.49003 1.16422C7.62165 1.29584 7.68745 1.45919 7.68745 1.65427V8.66682L9.45027 6.90398C9.5772 6.77707 9.73908 6.71449 9.93592 6.71625C10.1328 6.71802 10.2976 6.7853 10.4304 6.91809C10.5632 7.05089 10.6296 7.21189 10.6296 7.40109C10.6296 7.59029 10.5632 7.75129 10.4304 7.8841L7.57993 10.7345C7.49414 10.8203 7.40365 10.8809 7.30846 10.9161C7.21328 10.9514 7.11045 10.969 6.99998 10.969ZM1.78206 14.8754C1.31902 14.8754 0.927083 14.715 0.60625 14.3942C0.285417 14.0733 0.125 13.6814 0.125 13.2183V11.4379C0.125 11.2428 0.190817 11.0795 0.32245 10.9479C0.454068 10.8162 0.617418 10.7504 0.8125 10.7504C1.00758 10.7504 1.17093 10.8162 1.30255 10.9479C1.43417 11.0795 1.49998 11.2428 1.49998 11.4379V13.2183C1.49998 13.2889 1.52936 13.3535 1.58811 13.4123C1.64689 13.471 1.71154 13.5004 1.78206 13.5004H12.2179C12.2884 13.5004 12.3531 13.471 12.4118 13.4123C12.4706 13.3535 12.5 13.2889 12.5 13.2183V11.4379C12.5 11.2428 12.5658 11.0795 12.6974 10.9479C12.829 10.8162 12.9924 10.7504 13.1875 10.7504C13.3825 10.7504 13.5459 10.8162 13.6775 10.9479C13.8091 11.0795 13.875 11.2428 13.875 11.4379V13.2183C13.875 13.6814 13.7145 14.0733 13.3937 14.3942C13.0729 14.715 12.6809 14.8754 12.2179 14.8754H1.78206Z" fill="#2F2B3D" fill-opacity="0.78"/>
</svg>
