<svg width="18" height="18" viewBox="0 0 18 18" fill="none" xmlns="http://www.w3.org/2000/svg">
<path d="M1.65642 17.7832C1.19338 17.7832 0.801443 17.6228 0.480609 17.302C0.159776 16.9811 -0.000640869 16.5892 -0.000640869 16.1262V3.85702C-0.000640869 3.39398 0.159776 3.00204 0.480609 2.68121C0.801443 2.36037 1.19338 2.19996 1.65642 2.19996H9.48507L8.1101 3.57493H1.65642C1.5859 3.57493 1.52125 3.60431 1.46247 3.66307C1.40372 3.72185 1.37434 3.78649 1.37434 3.85702V16.1262C1.37434 16.1967 1.40372 16.2614 1.46247 16.3201C1.52125 16.3789 1.5859 16.4083 1.65642 16.4083H13.9256C13.9961 16.4083 14.0608 16.3789 14.1195 16.3201C14.1783 16.2614 14.2077 16.1967 14.2077 16.1262V9.65839L15.5826 8.28344V16.1262C15.5826 16.5892 15.4222 16.9812 15.1014 17.302C14.7806 17.6228 14.3886 17.7832 13.9256 17.7832L1.65642 17.7832ZM11.9442 2.58601L12.9332 3.55202L6.87434 9.60202V10.9083H8.15767L14.2482 4.83535L15.2195 5.79253L9.19066 11.8302C9.05199 11.9689 8.88951 12.079 8.70325 12.1607C8.51698 12.2424 8.32219 12.2832 8.11887 12.2832H6.32789C6.09168 12.2832 5.89454 12.2042 5.73648 12.0461C5.5784 11.8881 5.49936 11.6909 5.49936 11.4547V9.66373C5.49936 9.46042 5.53785 9.26562 5.61484 9.07936C5.69181 8.89309 5.79963 8.73062 5.93831 8.59194L11.9442 2.58601ZM15.2195 5.79253L11.9442 2.58601L14.042 0.488267C14.3675 0.162743 14.7627 -1.90735e-05 15.2275 -1.90735e-05C15.6923 -1.90735e-05 16.0827 0.165683 16.3988 0.497088L17.2943 1.39785C17.6105 1.71986 17.7685 2.10798 17.7685 2.5622C17.7685 3.01641 17.6075 3.40452 17.2855 3.72653L15.2195 5.79253Z" fill="#2F2B3D" fill-opacity="0.68"/>
</svg>
