<svg width="22" height="22" viewBox="0 0 22 22" fill="none" xmlns="http://www.w3.org/2000/svg">
<path d="M14.922 9.70796C15.3306 9.70796 15.6692 9.5744 15.938 9.30727C16.2067 9.04013 16.3411 8.70229 16.3411 8.29373C16.3411 7.88518 16.2075 7.54653 15.9404 7.27778C15.6733 7.00904 15.3354 6.87467 14.9269 6.87467C14.5183 6.87467 14.1797 7.00823 13.9109 7.27537C13.6422 7.5425 13.5078 7.88034 13.5078 8.28891C13.5078 8.69745 13.6413 9.0361 13.9085 9.30485C14.1756 9.57359 14.5135 9.70796 14.922 9.70796ZM7.54704 9.70796C7.9556 9.70796 8.29425 9.5744 8.56299 9.30727C8.83174 9.04013 8.96612 8.70229 8.96612 8.29373C8.96612 7.88518 8.83256 7.54653 8.56543 7.27778C8.29829 7.00904 7.96045 6.87467 7.55189 6.87467C7.14332 6.87467 6.80467 7.00823 6.53594 7.27537C6.26718 7.5425 6.1328 7.88034 6.1328 8.28891C6.1328 8.69745 6.26637 9.0361 6.5335 9.30485C6.80063 9.57359 7.13848 9.70796 7.54704 9.70796ZM11.237 16.6246C12.1689 16.6246 13.0435 16.4118 13.8609 15.9861C14.6783 15.5604 15.3321 14.9746 15.8224 14.2288C15.9904 13.9802 16.0133 13.741 15.8911 13.5111C15.7689 13.2812 15.573 13.1663 15.3036 13.1663C15.2096 13.1663 15.1157 13.1937 15.0217 13.2486C14.9277 13.3035 14.8515 13.3712 14.7932 13.4517C14.396 14.0212 13.8943 14.4771 13.288 14.8194C12.6817 15.1618 11.9981 15.333 11.237 15.333C10.4758 15.333 9.79216 15.1618 9.1859 14.8194C8.57965 14.4771 8.07792 14.0212 7.68069 13.4517C7.62236 13.3712 7.54458 13.3035 7.44737 13.2486C7.35016 13.1937 7.25051 13.1663 7.14842 13.1663C6.9005 13.1663 6.7137 13.2767 6.58802 13.4976C6.46231 13.7184 6.47794 13.951 6.6349 14.1955C7.13628 14.9635 7.79565 15.5604 8.61301 15.9861C9.43037 16.4118 10.305 16.6246 11.237 16.6246ZM11.2388 21.2913C9.81534 21.2913 8.47739 21.0212 7.22491 20.481C5.97241 19.9407 4.88292 19.2076 3.95644 18.2815C3.02993 17.3554 2.29646 16.2664 1.756 15.0145C1.21554 13.7626 0.945312 12.4249 0.945312 11.0015C0.945312 9.57804 1.21542 8.24008 1.75565 6.9876C2.29587 5.73511 3.02901 4.64562 3.95508 3.71913C4.88117 2.79263 5.97018 2.05915 7.22212 1.51869C8.47404 0.978238 9.81171 0.708008 11.2351 0.708008C12.6586 0.708008 13.9965 0.97812 15.249 1.51834C16.5015 2.05856 17.591 2.79171 18.5175 3.71778C19.444 4.64387 20.1775 5.73288 20.7179 6.98482C21.2584 8.23673 21.5286 9.57441 21.5286 10.9978C21.5286 12.4213 21.2585 13.7592 20.7183 15.0117C20.178 16.2642 19.4449 17.3537 18.5188 18.2802C17.5927 19.2067 16.5037 19.9401 15.2518 20.4806C13.9999 21.0211 12.6622 21.2913 11.2388 21.2913ZM11.237 19.6663C13.6383 19.6663 15.6831 18.8222 17.3713 17.134C19.0595 15.4458 19.9036 13.401 19.9036 10.9996C19.9036 8.59826 19.0595 6.55347 17.3713 4.86527C15.6831 3.17708 13.6383 2.33298 11.237 2.33298C8.83556 2.33298 6.79077 3.17708 5.10258 4.86527C3.41438 6.55347 2.57029 8.59826 2.57029 10.9996C2.57029 13.401 3.41438 15.4458 5.10258 17.134C6.79077 18.8222 8.83556 19.6663 11.237 19.6663Z" fill="#2F2B3D" fill-opacity="0.68"/>
</svg>
