<svg width="16" height="18" viewBox="0 0 16 18" fill="none" xmlns="http://www.w3.org/2000/svg">
<path d="M1.49998 1.66666V16.0512V15.979V16.3333V1.66666ZM1.78206 17.7083C1.31902 17.7083 0.927083 17.5479 0.60625 17.2271C0.285417 16.9062 0.125 16.5143 0.125 16.0512V1.94875C0.125 1.48571 0.285417 1.09377 0.60625 0.772937C0.927083 0.452104 1.31902 0.291687 1.78206 0.291687H8.37676C8.5977 0.291687 8.81011 0.334588 9.01401 0.420388C9.21791 0.506172 9.39507 0.624277 9.54551 0.774702L13.3919 4.62113C13.5424 4.77157 13.6605 4.94874 13.7463 5.15263C13.8321 5.35653 13.875 5.56895 13.875 5.78988V9.30321C13.6552 9.23153 13.4307 9.17776 13.2016 9.14192C12.9724 9.10606 12.7385 9.08814 12.5 9.08814V5.79164H9.7676C9.38096 5.79164 9.05221 5.6562 8.78133 5.38531C8.51044 5.11443 8.375 4.78568 8.375 4.39904V1.66666H1.78206C1.71154 1.66666 1.64689 1.69604 1.58811 1.7548C1.52936 1.81358 1.49998 1.87822 1.49998 1.94875V16.0512C1.49998 16.1218 1.52936 16.1864 1.58811 16.2452C1.64689 16.304 1.71154 16.3333 1.78206 16.3333H7.36488C7.45184 16.5966 7.56055 16.8413 7.69101 17.0675C7.82145 17.2938 7.97363 17.5073 8.14755 17.7083H1.78206ZM12.5 15.5154L11.0492 16.9433C10.9222 17.0702 10.7665 17.1345 10.582 17.1363C10.3975 17.138 10.2371 17.0708 10.1008 16.9344C9.97387 16.8075 9.91042 16.648 9.91042 16.4558C9.91042 16.2637 9.97387 16.1042 10.1008 15.9773L11.5428 14.5353L10.092 13.0844C9.96506 12.9575 9.90306 12.798 9.90599 12.6058C9.90894 12.4137 9.97387 12.2542 10.1008 12.1273C10.2277 12.0003 10.3872 11.9369 10.5794 11.9369C10.7715 11.9369 10.9311 12.0003 11.058 12.1273L12.5 13.5781L13.9508 12.1273C14.0777 12.0003 14.2349 11.936 14.4223 11.9342C14.6098 11.9325 14.7717 11.9998 14.908 12.1361C15.0349 12.263 15.0984 12.4211 15.0984 12.6103C15.0984 12.7995 15.0349 12.9575 14.908 13.0844L13.4801 14.5353L14.908 15.9861C15.0349 16.113 15.0992 16.2702 15.101 16.4576C15.1028 16.6451 15.0355 16.8069 14.8992 16.9433C14.7722 17.0702 14.6142 17.1336 14.425 17.1336C14.2358 17.1336 14.0777 17.0702 13.9508 16.9433L12.5 15.5154Z" fill="#2F2B3D" fill-opacity="0.68"/>
</svg>
