<svg width="12" height="12" viewBox="0 0 12 12" fill="none" xmlns="http://www.w3.org/2000/svg">
<g clip-path="url(#clip0_2334_28735)">
<path d="M11.0922 1.44121C10.8058 1.15747 10.4654 0.932335 10.0907 0.778699C9.716 0.625064 9.31425 0.545952 8.9085 0.545898H3.0915C2.27233 0.547861 1.48726 0.869929 0.907946 1.44169C0.32863 2.01345 0.0021917 2.78839 0 3.59708V8.40366C0.00223191 9.21235 0.328679 9.98728 0.907982 10.5591C1.48728 11.1308 2.27232 11.4529 3.0915 11.455H8.9085C9.72765 11.4529 10.5126 11.1307 11.0919 10.559C11.6712 9.98721 11.9977 9.21233 12 8.40366V3.59708C11.9998 3.19643 11.9196 2.79975 11.7638 2.4298C11.608 2.05985 11.3798 1.7239 11.0922 1.44121ZM11.1935 8.40366C11.1914 9.00127 10.9499 9.57382 10.5219 9.9964C10.0938 10.419 9.51386 10.6573 8.9085 10.6594H3.0915C2.48614 10.6573 1.90617 10.419 1.47811 9.9964C1.05006 9.57382 0.808645 9.00127 0.806538 8.40366V3.59708C0.808645 2.99946 1.05006 2.42692 1.47811 2.00434C1.90617 1.58176 2.48614 1.34344 3.0915 1.34136H8.9085C9.51389 1.34336 10.0939 1.58165 10.522 2.00425C10.95 2.42685 11.1914 2.99944 11.1935 3.59708V8.40366Z" fill="url(#paint0_linear_2334_28735)"/>
<path d="M8.87285 4.02309L6.97863 5.5093C6.76071 5.68025 6.49134 5.77471 6.21301 5.77779C5.93468 5.78086 5.66324 5.69238 5.44149 5.5263L3.42784 4.01763C3.38574 3.98499 3.33748 3.96096 3.28587 3.94692C3.23426 3.93288 3.18034 3.92913 3.12725 3.93587C3.07416 3.94262 3.02296 3.95973 2.97664 3.98621C2.93031 4.01269 2.88979 4.048 2.85743 4.0901C2.82507 4.13219 2.80152 4.18023 2.78816 4.2314C2.7748 4.28257 2.77189 4.33585 2.7796 4.38815C2.7873 4.44044 2.80548 4.49069 2.83306 4.53598C2.86065 4.58127 2.89708 4.62069 2.94026 4.65193L4.95391 6.1606C5.31839 6.43372 5.76462 6.57925 6.22218 6.57422C6.67974 6.56919 7.12258 6.41389 7.48082 6.13283L9.37519 4.64571C9.4572 4.57945 9.50951 4.48399 9.52079 4.37996C9.53208 4.27594 9.50144 4.17171 9.4355 4.08981C9.36956 4.0079 9.27362 3.95491 9.16842 3.94228C9.06322 3.92966 8.95721 3.95841 8.87331 4.02233L8.87285 4.02309Z" fill="url(#paint1_linear_2334_28735)"/>
</g>
<defs>
<linearGradient id="paint0_linear_2334_28735" x1="-22.0967" y1="6.49635" x2="37.9331" y2="5.4089" gradientUnits="userSpaceOnUse">
<stop offset="0.19" stop-color="#3143DE"/>
<stop offset="0.45" stop-color="#6970F9"/>
<stop offset="0.74" stop-color="#A3ABF0"/>
<stop offset="1" stop-color="#F0F0F2"/>
</linearGradient>
<linearGradient id="paint1_linear_2334_28735" x1="-22.1102" y1="5.72872" x2="37.9196" y2="4.64127" gradientUnits="userSpaceOnUse">
<stop offset="0.19" stop-color="#3143DE"/>
<stop offset="0.45" stop-color="#6970F9"/>
<stop offset="0.74" stop-color="#A3ABF0"/>
<stop offset="1" stop-color="#F0F0F2"/>
</linearGradient>
<clipPath id="clip0_2334_28735">
<rect width="12" height="12" fill="white"/>
</clipPath>
</defs>
</svg>
