<svg width="12" height="12" viewBox="0 0 12 12" fill="none" xmlns="http://www.w3.org/2000/svg">
<g clip-path="url(#clip0_851_6026)">
<path d="M8.76 7.20599C8.64 7.14607 7.86 6.78652 7.74 6.72659C7.62 6.66667 7.5 6.66667 7.38 6.78652C7.26 6.90637 7.02 7.26592 6.9 7.38577C6.84 7.50562 6.72 7.50562 6.6 7.44569C6.18 7.26592 5.76 7.02622 5.4 6.72659C5.1 6.42697 4.8 6.06742 4.56 5.70787C4.5 5.58802 4.56 5.46816 4.62 5.40824C4.68 5.34831 4.74 5.22846 4.86 5.16854C4.92 5.10861 4.98 4.98876 4.98 4.92884C5.04 4.86891 5.04 4.74906 4.98 4.68914C4.92 4.62921 4.62 3.91011 4.5 3.61049C4.44 3.19101 4.32 3.19101 4.2 3.19101H3.9C3.78 3.19101 3.6 3.31086 3.54 3.37079C3.18 3.73034 3 4.14981 3 4.62921C3.06 5.16854 3.24 5.70787 3.6 6.18727C4.26 7.14607 5.1 7.92509 6.12 8.40449C6.42 8.52434 6.66 8.64419 6.96 8.70412C7.26 8.82397 7.56 8.82397 7.92 8.76405C8.34 8.70412 8.7 8.40449 8.94 8.04494C9.06 7.80524 9.06 7.56554 9 7.32584L8.76 7.20599ZM10.26 1.75281C7.92 -0.58427 4.14 -0.58427 1.8 1.75281C-0.12 3.67041 -0.48 6.60674 0.84 8.94382L0 12L3.18 11.161C4.08 11.6405 5.04 11.8801 6 11.8801C9.3 11.8801 11.94 9.24345 11.94 5.94757C12 4.38951 11.34 2.89139 10.26 1.75281ZM8.64 10.1423C7.86 10.6217 6.96 10.9213 6 10.9213C5.1 10.9213 4.26 10.6816 3.48 10.2622L3.3 10.1423L1.44 10.6217L1.92 8.82397L1.8 8.64419C0.36 6.24719 1.08 3.25094 3.42 1.75281C5.76 0.254682 8.76 1.03371 10.2 3.31086C11.64 5.64794 10.98 8.70412 8.64 10.1423Z" fill="#33303C" fill-opacity="0.38"/>
</g>
<defs>
<clipPath id="clip0_851_6026">
<rect width="12" height="12" fill="white"/>
</clipPath>
</defs>
</svg>
