<svg width="20" height="20" viewBox="0 0 20 20" fill="none" xmlns="http://www.w3.org/2000/svg">
<g clip-path="url(#clip0_5209_45310)">
<path d="M1 10C1 12.3869 1.94821 14.6761 3.63604 16.364C5.32387 18.0518 7.61305 19 10 19C12.3869 19 14.6761 18.0518 16.364 16.364C18.0518 14.6761 19 12.3869 19 10C19 7.61305 18.0518 5.32387 16.364 3.63604C14.6761 1.94821 12.3869 1 10 1C7.61305 1 5.32387 1.94821 3.63604 3.63604C1.94821 5.32387 1 7.61305 1 10Z" stroke="#2F2B3D" stroke-opacity="0.68" stroke-width="2" stroke-linecap="round" stroke-linejoin="round"/>
<path d="M1.69202 13.4624H4.11602C4.75856 13.4619 5.37459 13.2063 5.82875 12.7518C6.28291 12.2972 6.53802 11.681 6.53802 11.0384V8.96245C6.53802 8.31956 6.7934 7.70301 7.24799 7.24842C7.70258 6.79383 8.31913 6.53845 8.96202 6.53845C9.28008 6.53845 9.59503 6.4758 9.88888 6.35408C10.1827 6.23236 10.4497 6.05396 10.6746 5.82906C10.8995 5.60415 11.0779 5.33716 11.1997 5.0433C11.3214 4.74945 11.384 4.43451 11.384 4.11645V1.10645M19 9.85845C18.309 9.50177 17.5436 9.31332 16.766 9.30844H13.8C13.476 9.29913 13.1533 9.35492 12.8512 9.4725C12.5491 9.59008 12.2737 9.76706 12.0412 9.99298C11.8087 10.2189 11.6238 10.4892 11.4976 10.7878C11.3714 11.0864 11.3064 11.4073 11.3064 11.7314C11.3064 12.0556 11.3714 12.3765 11.4976 12.6751C11.6238 12.9737 11.8087 13.244 12.0412 13.4699C12.2737 13.6958 12.5491 13.8728 12.8512 13.9904C13.1533 14.108 13.476 14.1638 13.8 14.1544C14.2588 14.1544 14.6989 14.3367 15.0233 14.6612C15.3477 14.9856 15.53 15.4256 15.53 15.8844V17.0944" stroke="#2F2B3D" stroke-opacity="0.68" stroke-width="2" stroke-linecap="round" stroke-linejoin="round"/>
</g>
<defs>
<clipPath id="clip0_5209_45310">
<rect width="20" height="20" fill="white"/>
</clipPath>
</defs>
</svg>
